<svg width="259" height="35" viewBox="0 0 259 44" fill="none" xmlns="http://www.w3.org/2000/svg">
<path d="M138.744 8.99292L142.74 14.2017L146.754 8.99292H148.477V19.9962H146.577V12.1097L142.757 17.0976L138.905 12.0937V19.9962H137.021V8.99292H138.744ZM152.172 19.9962V8.99292H154.074V16.898L160.502 8.99292H162.146V19.9962H160.261V12.0777L153.816 19.9962H152.172ZM169.487 16.1847H167.732V19.9962H165.845V8.99292H169.487C171.839 8.99292 173.452 10.558 173.452 12.5888C173.452 14.6196 171.839 16.1847 169.487 16.1847ZM169.462 10.699H167.721V14.4786H169.462C170.816 14.4786 171.587 13.6587 171.587 12.5888C171.587 11.5188 170.826 10.699 169.462 10.699ZM137.007 35.4817V24.4784H138.908V32.3808L145.336 24.4784H146.98V35.4817H145.109V27.5606L138.651 35.4817H137.007ZM150.681 24.4784H152.581V29.0351H158.235V24.4784H160.123V35.4817H158.235V30.7545H152.581V35.4817H150.695L150.681 24.4784ZM163.815 24.4784H167.763C169.809 24.4784 171.179 25.8571 171.179 27.5154C171.196 27.9269 171.11 28.3364 170.924 28.7077C170.739 29.0791 170.461 29.4009 170.116 29.6447C170.67 29.8391 171.147 30.1971 171.477 30.6675C171.807 31.1378 171.973 31.6966 171.953 32.2637C171.953 34.0763 170.437 35.4869 168.262 35.4869H163.815V24.4784ZM167.667 29.1123C168.696 29.1123 169.328 28.4762 169.328 27.6245C169.328 26.826 168.696 26.1366 167.667 26.1366H165.7V29.1123H167.667ZM168.22 33.8234C169.443 33.8234 170.121 33.1714 170.121 32.2424C170.121 31.3135 169.443 30.6614 168.22 30.6614H165.7V33.8234H168.22ZM174.948 24.4784H181.829V26.2138H176.835V29.0351H180.86V30.7705H176.835V33.7463H181.829V35.4817H174.948V24.4784ZM183.949 29.9799C183.949 26.7567 186.496 24.292 189.913 24.292C192.681 24.292 194.859 26.0114 195.424 28.1674H193.392C192.911 26.911 191.524 26.038 189.913 26.038C187.528 26.038 185.851 27.7575 185.851 29.9746C185.851 32.1918 187.528 33.9112 189.913 33.9112C191.524 33.9112 192.911 33.0435 193.392 31.7819H195.424C194.87 33.9352 192.656 35.6572 189.913 35.6572C186.496 35.6679 183.949 33.2031 183.949 29.9799ZM200.543 26.2138H197.221V24.4784H205.762V26.2138H202.441V35.4817H200.556L200.543 26.2138ZM208.441 35.4817V24.4784H210.342V32.3808L216.784 24.4784H218.427V35.4817H216.541V27.5606L210.085 35.4817H208.441ZM232.494 33.7463V37.7707H230.754V35.4817H222.117V24.4784H224.018V33.7463H229.143V24.4784H231.045V33.7463H232.494ZM235.351 35.4817V24.4784H237.263V32.3808L243.692 24.4784H245.335V35.4817H243.451V27.5606L236.986 35.4817H235.351ZM249.024 35.4816V24.4783H250.925V32.3808L257.356 24.4783H259V35.4816H257.113V27.5606L250.668 35.4816H249.024ZM251.49 21.2072H252.73C252.73 22.1388 253.283 22.711 254.166 22.711C255.048 22.711 255.599 22.1388 255.599 21.2072H256.839C256.851 21.552 256.789 21.8955 256.661 22.2173C256.531 22.539 256.336 22.8326 256.087 23.0804C255.838 23.3283 255.539 23.5253 255.208 23.6599C254.878 23.7944 254.523 23.8638 254.164 23.8638C253.805 23.8638 253.451 23.7944 253.12 23.6599C252.79 23.5253 252.491 23.3283 252.242 23.0804C251.993 22.8326 251.798 22.539 251.668 22.2173C251.539 21.8955 251.478 21.552 251.49 21.2072Z" fill="white" fill-opacity="0.8"/>
<path d="M67.8291 19.8057C68.9016 20.179 69.8919 20.7398 70.7497 21.4594C71.5642 22.2122 72.2285 23.1002 72.7104 24.0803C73.1822 25.124 73.4174 26.2512 73.4016 27.3879C73.4179 28.512 73.1822 29.6264 72.7104 30.6562C72.2326 31.6386 71.5551 32.5203 70.7172 33.2497C69.8792 33.9791 68.897 34.5417 67.8291 34.9048C66.6351 35.3246 65.3721 35.5368 64.1 35.5311H50.6737V9.44521H71.0544V14.5166H56.2843V19.2185H64.0969C65.3675 19.2011 66.6316 19.3998 67.8291 19.8057ZM66.9022 24.9452C66.0719 24.3551 65.0542 24.0562 64.0202 24.0987H56.2843V30.6065H64.0202C65.0537 30.6484 66.0709 30.3505 66.9022 29.7625C67.6346 29.2121 67.9799 28.452 67.9799 27.3748C67.9799 26.2976 67.6346 25.5009 66.9022 24.9452ZM83.8053 35.5311H78.4364V9.44521H83.8053V20.5054L93.3512 9.44521H100.026L89.1392 21.9731L102.302 35.5311H95.2927L83.8053 23.7004V35.5311ZM110.543 34.9048C107.158 33.5686 104.464 31.0068 103.048 27.7785C102.319 26.1021 101.953 24.3022 101.97 22.4869C101.951 20.709 102.301 18.945 103.001 17.2975C103.701 15.6499 104.735 14.1515 106.045 12.8892C107.335 11.663 108.862 10.6899 110.543 10.0245C112.36 9.31647 114.308 8.96616 116.272 8.99445C117.785 8.98993 119.289 9.21282 120.73 9.65495C122.124 10.1188 123.444 10.7663 124.651 11.5787C125.8 12.4084 126.811 13.4 127.649 14.5193C128.501 15.676 129.125 16.9707 129.494 18.3406H123.461C123.199 17.6877 122.808 17.089 122.309 16.5767C121.803 16.0552 121.219 15.6075 120.577 15.248C119.932 14.9046 119.248 14.6337 118.539 14.4407C117.799 14.2508 117.037 14.1521 116.272 14.1472C115.061 14.1348 113.859 14.3466 112.733 14.7709C111.691 15.1827 110.75 15.7957 109.966 16.5715C109.207 17.3377 108.607 18.2353 108.198 19.216C107.776 20.2585 107.57 21.3694 107.592 22.4869C107.573 23.605 107.782 24.7158 108.206 25.7578C108.615 26.7385 109.215 27.636 109.975 28.4022C110.749 29.1787 111.694 29.7811 112.742 30.1662C113.859 30.6204 115.065 30.8454 116.279 30.8266C117.046 30.8217 117.808 30.7231 118.547 30.5331C119.264 30.3432 119.95 30.0593 120.585 29.6891C121.233 29.3562 121.818 28.9211 122.315 28.4022C122.813 27.8901 123.204 27.2913 123.467 26.6384H129.5C129.131 27.9967 128.505 29.2793 127.655 30.423C126.827 31.5506 125.814 32.5434 124.656 33.3637C123.467 34.1995 122.142 34.8448 120.735 35.2743C119.301 35.7461 117.793 35.9819 116.277 35.9715C114.309 35.9886 112.359 35.6258 110.543 34.9048Z" fill="white"/>
<mask id="mask0_34106_3" style="mask-type:alpha" maskUnits="userSpaceOnUse" x="0" y="1" width="42" height="41">
<path d="M20.6449 41.3683C32.0468 41.3683 41.2898 32.5103 41.2898 21.5835C41.2898 10.6567 32.0468 1.79883 20.6449 1.79883C9.24305 1.79883 0 10.6567 0 21.5835C0 32.5103 9.24305 41.3683 20.6449 41.3683Z" fill="white"/>
</mask>
<g mask="url(#mask0_34106_3)">
<path d="M39.1058 31.5329C44.8182 21.8332 41.0759 9.44136 30.7471 3.85476C20.4184 -1.73182 7.41441 1.60246 1.70203 11.3021C-4.01036 21.0017 -0.268038 33.3936 10.0607 38.9802C20.3895 44.5668 33.3934 41.2325 39.1058 31.5329Z" fill="url(#paint0_linear_34106_3)"/>
</g>
<mask id="mask1_34106_3" style="mask-type:alpha" maskUnits="userSpaceOnUse" x="0" y="1" width="42" height="41">
<path d="M20.6449 41.3683C32.0468 41.3683 41.2898 32.5103 41.2898 21.5835C41.2898 10.6567 32.0468 1.79883 20.6449 1.79883C9.24305 1.79883 0 10.6567 0 21.5835C0 32.5103 9.24305 41.3683 20.6449 41.3683Z" fill="white"/>
</mask>
<g mask="url(#mask1_34106_3)">
<path d="M39.5913 29.5428C45.0421 22.3713 42.2632 11.5333 33.3844 5.3356C24.5057 -0.862207 12.8892 -0.0728453 7.43843 7.09868C1.98763 14.2702 4.76655 25.1081 13.6453 31.3059C22.5241 37.5037 34.1405 36.7144 39.5913 29.5428Z" fill="url(#paint1_radial_34106_3)"/>
</g>
<mask id="mask2_34106_3" style="mask-type:alpha" maskUnits="userSpaceOnUse" x="0" y="1" width="42" height="41">
<path d="M20.6449 41.3683C32.0468 41.3683 41.2898 32.5103 41.2898 21.5835C41.2898 10.6567 32.0468 1.79883 20.6449 1.79883C9.24305 1.79883 0 10.6567 0 21.5835C0 32.5103 9.24305 41.3683 20.6449 41.3683Z" fill="white"/>
</mask>
<g mask="url(#mask2_34106_3)">
<path d="M39.7351 20.3063C42.4391 15.2815 38.0523 7.9569 29.937 3.94627C21.8218 -0.0643482 13.0511 0.757813 10.3472 5.78262C7.64328 10.8074 12.03 18.1321 20.1452 22.1427C28.2604 26.1533 37.0311 25.3312 39.7351 20.3063Z" fill="url(#paint2_radial_34106_3)"/>
</g>
<defs>
<linearGradient id="paint0_linear_34106_3" x1="31.9532" y1="66.884" x2="20.7779" y2="-5.77683" gradientUnits="userSpaceOnUse">
<stop stop-color="#006DEF"/>
<stop offset="0.11" stop-color="#0570EF"/>
<stop offset="0.23" stop-color="#1277F0"/>
<stop offset="0.37" stop-color="#2884F2"/>
<stop offset="0.5" stop-color="#4896F4"/>
<stop offset="0.64" stop-color="#70ADF6"/>
<stop offset="0.78" stop-color="#A1C9F9"/>
<stop offset="0.92" stop-color="#DBEAFD"/>
<stop offset="1" stop-color="white"/>
</linearGradient>
<radialGradient id="paint1_radial_34106_3" cx="0" cy="0" r="1" gradientUnits="userSpaceOnUse" gradientTransform="translate(49.2504 27.8183) rotate(105.923) scale(30.51 53.0402)">
<stop offset="0.03" stop-color="#006DEF"/>
<stop offset="0.1" stop-color="#0671EF"/>
<stop offset="0.21" stop-color="#187BF0"/>
<stop offset="0.33" stop-color="#358BF2"/>
<stop offset="0.46" stop-color="#5EA3F4"/>
<stop offset="0.61" stop-color="#92C1F8"/>
<stop offset="0.76" stop-color="#D1E4FB"/>
<stop offset="0.83" stop-color="#F0F6FD"/>
</radialGradient>
<radialGradient id="paint2_radial_34106_3" cx="0" cy="0" r="1" gradientUnits="userSpaceOnUse" gradientTransform="translate(51.5303 8.86827) rotate(47.0785) scale(44.1586 37.3625)">
<stop offset="0.06" stop-color="#006DEF"/>
<stop offset="0.09" stop-color="#0F75F0"/>
<stop offset="0.25" stop-color="#529CF4"/>
<stop offset="0.4" stop-color="#8BBCF7"/>
<stop offset="0.54" stop-color="#B6D5FA"/>
<stop offset="0.67" stop-color="#D6E7FB"/>
<stop offset="0.77" stop-color="#E9F2FD"/>
<stop offset="0.84" stop-color="#F0F6FD"/>
</radialGradient>
</defs>
</svg>