<svg width="231" height="35" viewBox="0 0 231 39" fill="none" xmlns="http://www.w3.org/2000/svg">
<path d="M43.6339 34.0994V26.0896H46.3364C46.8578 26.0896 47.2919 26.1809 47.6387 26.3634C47.9881 26.5459 48.2501 26.7949 48.4248 27.1104C48.5995 27.4259 48.6869 27.7844 48.6869 28.1859C48.6869 28.5197 48.6308 28.8052 48.5187 29.0424C48.4066 29.2797 48.254 29.4714 48.0611 29.6174C47.8682 29.7634 47.6531 29.869 47.4158 29.9342V29.9967C47.6739 30.015 47.9242 30.1062 48.1667 30.2705C48.4092 30.4322 48.6086 30.659 48.7651 30.951C48.9215 31.243 48.9997 31.5924 48.9997 31.9992C48.9997 32.4033 48.9098 32.7644 48.7299 33.0825C48.55 33.398 48.2736 33.647 47.9008 33.8295C47.5305 34.0094 47.0586 34.0994 46.485 34.0994H43.6339ZM44.3652 33.4423H46.485C47.1029 33.4423 47.5592 33.3054 47.8538 33.0317C48.1511 32.7579 48.2997 32.4137 48.2997 31.9992C48.2997 31.6941 48.2254 31.4177 48.0767 31.17C47.9307 30.9197 47.7235 30.7216 47.4549 30.5756C47.189 30.4295 46.8761 30.3565 46.5163 30.3565H44.3652V33.4423ZM44.3652 29.7073H46.4028C46.7183 29.7073 46.9947 29.6421 47.232 29.5118C47.4692 29.3814 47.6544 29.2015 47.7873 28.9721C47.9203 28.7426 47.9868 28.4806 47.9868 28.1859C47.9868 27.7609 47.8486 27.4155 47.5722 27.1495C47.2959 26.881 46.8839 26.7467 46.3364 26.7467H44.3652V29.7073ZM51.747 34.2363C51.3846 34.2363 51.0535 34.1659 50.7536 34.0251C50.4538 33.8817 50.2152 33.6757 50.0379 33.4071C49.8606 33.136 49.772 32.8074 49.772 32.4215C49.772 32.1243 49.828 31.874 49.9401 31.6706C50.0523 31.4673 50.2113 31.3004 50.4173 31.17C50.6233 31.0397 50.867 30.9367 51.1486 30.8611C51.4302 30.7854 51.7405 30.7268 52.0795 30.6851C52.4158 30.6434 52.7 30.6068 52.9321 30.5756C53.1667 30.5443 53.3453 30.4947 53.4679 30.4269C53.5904 30.3592 53.6517 30.2496 53.6517 30.0984V29.9576C53.6517 29.5483 53.5291 29.2263 53.284 28.9916C53.0416 28.7543 52.6922 28.6357 52.2359 28.6357C51.8031 28.6357 51.4498 28.7309 51.176 28.9212C50.9049 29.1115 50.7145 29.3358 50.605 29.5939L49.9441 29.3553C50.0796 29.0268 50.2674 28.7648 50.5072 28.5692C50.7471 28.3711 51.0157 28.229 51.3129 28.1429C51.6101 28.0543 51.9113 28.0099 52.2163 28.0099C52.4458 28.0099 52.6844 28.0399 52.9321 28.0999C53.1824 28.1599 53.4144 28.2642 53.6282 28.4128C53.842 28.5588 54.0154 28.7635 54.1484 29.0268C54.2813 29.2875 54.3478 29.6187 54.3478 30.0202V34.0994H53.6517V33.149H53.6087C53.5252 33.3263 53.4014 33.4984 53.2371 33.6652C53.0728 33.8321 52.8669 33.969 52.6192 34.0759C52.3715 34.1828 52.0808 34.2363 51.747 34.2363ZM51.8409 33.5988C52.2111 33.5988 52.5318 33.5166 52.803 33.3524C53.0742 33.1881 53.2827 32.9704 53.4287 32.6992C53.5774 32.4255 53.6517 32.1243 53.6517 31.7958V30.9275C53.5995 30.9771 53.5122 31.0214 53.3896 31.0605C53.2697 31.0996 53.1302 31.1348 52.9712 31.1661C52.8147 31.1948 52.6583 31.2196 52.5018 31.2404C52.3454 31.2613 52.2046 31.2795 52.0795 31.2952C51.7405 31.3369 51.4511 31.4021 51.2112 31.4907C50.9713 31.5794 50.7875 31.7019 50.6598 31.8584C50.532 32.0122 50.4681 32.2104 50.4681 32.4528C50.4681 32.8179 50.5985 33.1008 50.8592 33.3015C51.12 33.4997 51.4472 33.5988 51.8409 33.5988ZM55.649 28.0921H56.3452V33.4423H58.8091V28.0921H59.5053V33.4423H61.9692V28.0921H62.6653V34.0994H55.649V28.0921ZM70.5632 30.7711V31.4282H67.0316V30.7711H70.5632ZM67.2037 28.0921V34.0994H66.5075V28.0921H67.2037ZM71.0755 28.0921V34.0994H70.3794V28.0921H71.0755ZM74.0555 34.2363C73.6931 34.2363 73.362 34.1659 73.0621 34.0251C72.7623 33.8817 72.5237 33.6757 72.3464 33.4071C72.1691 33.136 72.0805 32.8074 72.0805 32.4215C72.0805 32.1243 72.1365 31.874 72.2486 31.6706C72.3608 31.4673 72.5198 31.3004 72.7258 31.17C72.9318 31.0397 73.1756 30.9367 73.4571 30.8611C73.7387 30.7854 74.049 30.7268 74.388 30.6851C74.7243 30.6434 75.0085 30.6068 75.2406 30.5756C75.4752 30.5443 75.6538 30.4947 75.7764 30.4269C75.8989 30.3592 75.9602 30.2496 75.9602 30.0984V29.9576C75.9602 29.5483 75.8376 29.2263 75.5925 28.9916C75.3501 28.7543 75.0007 28.6357 74.5444 28.6357C74.1116 28.6357 73.7583 28.7309 73.4845 28.9212C73.2134 29.1115 73.023 29.3358 72.9135 29.5939L72.2526 29.3553C72.3881 29.0268 72.5759 28.7648 72.8157 28.5692C73.0556 28.3711 73.3242 28.229 73.6214 28.1429C73.9186 28.0543 74.2198 28.0099 74.5248 28.0099C74.7543 28.0099 74.9929 28.0399 75.2406 28.0999C75.4909 28.1599 75.7229 28.2642 75.9367 28.4128C76.1505 28.5588 76.3239 28.7635 76.4569 29.0268C76.5899 29.2875 76.6563 29.6187 76.6563 30.0202V34.0994H75.9602V33.149H75.9172C75.8337 33.3263 75.7099 33.4984 75.5456 33.6652C75.3814 33.8321 75.1754 33.969 74.9277 34.0759C74.68 34.1828 74.3893 34.2363 74.0555 34.2363ZM74.1494 33.5988C74.5196 33.5988 74.8403 33.5166 75.1115 33.3524C75.3827 33.1881 75.5912 32.9704 75.7373 32.6992C75.8859 32.4255 75.9602 32.1243 75.9602 31.7958V30.9275C75.908 30.9771 75.8207 31.0214 75.6981 31.0605C75.5782 31.0996 75.4387 31.1348 75.2797 31.1661C75.1232 31.1948 74.9668 31.2196 74.8103 31.2404C74.6539 31.2613 74.5131 31.2795 74.388 31.2952C74.049 31.3369 73.7596 31.4021 73.5197 31.4907C73.2798 31.5794 73.096 31.7019 72.9683 31.8584C72.8405 32.0122 72.7766 32.2104 72.7766 32.4528C72.7766 32.8179 72.907 33.1008 73.1677 33.3015C73.4285 33.4997 73.7557 33.5988 74.1494 33.5988ZM77.9575 34.0994V28.0921H80.3237C80.9625 28.0921 81.4657 28.2303 81.8333 28.5066C82.2036 28.783 82.3887 29.1559 82.3887 29.6252C82.3887 29.9824 82.2857 30.2679 82.0797 30.4817C81.8737 30.6955 81.5974 30.8467 81.2506 30.9354C81.4826 30.9745 81.6977 31.0592 81.8959 31.1896C82.0967 31.32 82.2596 31.492 82.3848 31.7058C82.5099 31.9196 82.5725 32.1752 82.5725 32.4724C82.5725 32.7853 82.4943 33.0643 82.3378 33.3093C82.1814 33.5544 81.9611 33.7474 81.6769 33.8882C81.3927 34.029 81.0563 34.0994 80.6678 34.0994H77.9575ZM78.6224 33.4541H80.6678C81.0355 33.4541 81.3262 33.3602 81.54 33.1725C81.7538 32.9821 81.8607 32.7292 81.8607 32.4137C81.8607 32.0774 81.759 31.8088 81.5556 31.6081C81.3549 31.4047 81.085 31.303 80.7461 31.303H78.6224V33.4541ZM78.6224 30.6851H80.3667C80.6379 30.6851 80.8725 30.6434 81.0707 30.5599C81.2688 30.4765 81.4214 30.3592 81.5283 30.2079C81.6378 30.0541 81.6912 29.8742 81.6886 29.6682C81.6886 29.3736 81.5687 29.1454 81.3288 28.9838C81.0889 28.8195 80.7539 28.7374 80.3237 28.7374H78.6224V30.6851ZM84.2442 33.1099L87.4161 28.0921H88.2491V34.0994H87.553V29.0816L84.3929 34.0994H83.5481V28.0921H84.2442V33.1099ZM93.1073 28.0921V28.7491H90.2328V34.0994H89.5366V28.0921H93.1073ZM95.3853 34.2363C95.0229 34.2363 94.6918 34.1659 94.3919 34.0251C94.0921 33.8817 93.8535 33.6757 93.6762 33.4071C93.4989 33.136 93.4103 32.8074 93.4103 32.4215C93.4103 32.1243 93.4663 31.874 93.5784 31.6706C93.6905 31.4673 93.8496 31.3004 94.0556 31.17C94.2615 31.0397 94.5053 30.9367 94.7869 30.8611C95.0685 30.7854 95.3788 30.7268 95.7177 30.6851C96.0541 30.6434 96.3383 30.6068 96.5703 30.5756C96.805 30.5443 96.9836 30.4947 97.1061 30.4269C97.2287 30.3592 97.29 30.2496 97.29 30.0984V29.9576C97.29 29.5483 97.1674 29.2263 96.9223 28.9916C96.6798 28.7543 96.3305 28.6357 95.8742 28.6357C95.4414 28.6357 95.0881 28.7309 94.8143 28.9212C94.5431 29.1115 94.3528 29.3358 94.2433 29.5939L93.5823 29.3553C93.7179 29.0268 93.9056 28.7648 94.1455 28.5692C94.3854 28.3711 94.654 28.229 94.9512 28.1429C95.2484 28.0543 95.5496 28.0099 95.8546 28.0099C96.0841 28.0099 96.3226 28.0399 96.5703 28.0999C96.8206 28.1599 97.0527 28.2642 97.2665 28.4128C97.4803 28.5588 97.6537 28.7635 97.7867 29.0268C97.9196 29.2875 97.9861 29.6187 97.9861 30.0202V34.0994H97.29V33.149H97.2469C97.1635 33.3263 97.0397 33.4984 96.8754 33.6652C96.7111 33.8321 96.5052 33.969 96.2575 34.0759C96.0098 34.1828 95.719 34.2363 95.3853 34.2363ZM95.4792 33.5988C95.8494 33.5988 96.1701 33.5166 96.4413 33.3524C96.7124 33.1881 96.921 32.9704 97.067 32.6992C97.2157 32.4255 97.29 32.1243 97.29 31.7958V30.9275C97.2378 30.9771 97.1505 31.0214 97.0279 31.0605C96.908 31.0996 96.7685 31.1348 96.6094 31.1661C96.453 31.1948 96.2966 31.2196 96.1401 31.2404C95.9837 31.2613 95.8429 31.2795 95.7177 31.2952C95.3788 31.3369 95.0894 31.4021 94.8495 31.4907C94.6096 31.5794 94.4258 31.7019 94.2981 31.8584C94.1703 32.0122 94.1064 32.2104 94.1064 32.4528C94.1064 32.8179 94.2368 33.1008 94.4975 33.3015C94.7582 33.4997 95.0855 33.5988 95.4792 33.5988ZM98.4464 28.7491V28.0921H103.14V28.7491H101.153V34.0994H100.457V28.7491H98.4464ZM106.083 34.2245C105.565 34.2245 105.106 34.0928 104.707 33.8295C104.31 33.5662 104 33.2024 103.776 32.7383C103.552 32.2716 103.44 31.7332 103.44 31.1231C103.44 30.5078 103.552 29.9667 103.776 29.5C104 29.0307 104.31 28.6657 104.707 28.405C105.106 28.1416 105.565 28.0099 106.083 28.0099C106.602 28.0099 107.06 28.1416 107.456 28.405C107.853 28.6683 108.163 29.0333 108.387 29.5C108.614 29.9667 108.727 30.5078 108.727 31.1231C108.727 31.7332 108.615 32.2716 108.391 32.7383C108.167 33.2024 107.855 33.5662 107.456 33.8295C107.06 34.0928 106.602 34.2245 106.083 34.2245ZM106.083 33.587C106.501 33.587 106.854 33.4749 107.143 33.2507C107.433 33.0264 107.652 32.7279 107.8 32.3551C107.952 31.9822 108.027 31.5716 108.027 31.1231C108.027 30.6746 107.952 30.2627 107.8 29.8872C107.652 29.5118 107.433 29.2106 107.143 28.9838C106.854 28.7569 106.501 28.6435 106.083 28.6435C105.669 28.6435 105.316 28.7569 105.024 28.9838C104.734 29.2106 104.514 29.5118 104.363 29.8872C104.214 30.2627 104.14 30.6746 104.14 31.1231C104.14 31.5716 104.214 31.9822 104.363 32.3551C104.514 32.7279 104.734 33.0264 105.024 33.2507C105.313 33.4749 105.666 33.587 106.083 33.587ZM109.705 36.3521V28.0921H110.381V29.238H110.464C110.547 29.0581 110.662 28.8743 110.808 28.6865C110.954 28.4962 111.147 28.3359 111.387 28.2055C111.629 28.0751 111.934 28.0099 112.302 28.0099C112.797 28.0099 113.23 28.1403 113.6 28.401C113.973 28.6592 114.262 29.0216 114.468 29.4883C114.677 29.9524 114.781 30.4934 114.781 31.1114C114.781 31.7319 114.677 32.2755 114.468 32.7423C114.262 33.209 113.973 33.5727 113.6 33.8334C113.23 34.0942 112.8 34.2245 112.31 34.2245C111.947 34.2245 111.643 34.1593 111.398 34.029C111.156 33.8986 110.959 33.7383 110.808 33.5479C110.659 33.355 110.544 33.1672 110.464 32.9847H110.401V36.3521H109.705ZM110.393 31.0996C110.393 31.5846 110.465 32.0148 110.608 32.3903C110.754 32.7631 110.963 33.0564 111.234 33.2702C111.508 33.4814 111.839 33.587 112.227 33.587C112.626 33.587 112.963 33.4775 113.236 33.2585C113.513 33.0369 113.723 32.7383 113.866 32.3629C114.012 31.9874 114.085 31.5663 114.085 31.0996C114.085 30.6381 114.013 30.2223 113.87 29.852C113.729 29.4818 113.521 29.1885 113.244 28.9721C112.968 28.753 112.629 28.6435 112.227 28.6435C111.836 28.6435 111.504 28.7491 111.23 28.9603C110.956 29.1689 110.748 29.4583 110.604 29.8286C110.464 30.1962 110.393 30.6199 110.393 31.0996ZM118.305 34.0994V28.0921H120.671C121.31 28.0921 121.813 28.2303 122.18 28.5066C122.551 28.783 122.736 29.1559 122.736 29.6252C122.736 29.9824 122.633 30.2679 122.427 30.4817C122.221 30.6955 121.945 30.8467 121.598 30.9354C121.83 30.9745 122.045 31.0592 122.243 31.1896C122.444 31.32 122.607 31.492 122.732 31.7058C122.857 31.9196 122.92 32.1752 122.92 32.4724C122.92 32.7853 122.841 33.0643 122.685 33.3093C122.529 33.5544 122.308 33.7474 122.024 33.8882C121.74 34.029 121.404 34.0994 121.015 34.0994H118.305ZM118.97 33.4541H121.015C121.383 33.4541 121.673 33.3602 121.887 33.1725C122.101 32.9821 122.208 32.7292 122.208 32.4137C122.208 32.0774 122.106 31.8088 121.903 31.6081C121.702 31.4047 121.432 31.303 121.093 31.303H118.97V33.4541ZM118.97 30.6851H120.714C120.985 30.6851 121.22 30.6434 121.418 30.5599C121.616 30.4765 121.769 30.3592 121.875 30.2079C121.985 30.0541 122.038 29.8742 122.036 29.6682C122.036 29.3736 121.916 29.1454 121.676 28.9838C121.436 28.8195 121.101 28.7374 120.671 28.7374H118.97V30.6851ZM129.583 33.1255L131.839 28.0921H132.516L129.86 34.0994H129.305L126.681 28.0921H127.346L129.583 33.1255ZM127.138 28.0921V34.0994H126.442V28.0921H127.138ZM132.027 34.0994V28.0921H132.723V34.0994H132.027ZM134.719 33.1099L137.89 28.0921H138.723V34.0994H138.027V29.0816L134.867 34.0994H134.022V28.0921H134.719V33.1099ZM140.011 36.3521V28.0921H140.688V29.238H140.77C140.853 29.0581 140.968 28.8743 141.114 28.6865C141.26 28.4962 141.453 28.3359 141.693 28.2055C141.935 28.0751 142.24 28.0099 142.608 28.0099C143.103 28.0099 143.536 28.1403 143.906 28.401C144.279 28.6592 144.569 29.0216 144.775 29.4883C144.983 29.9524 145.087 30.4934 145.087 31.1114C145.087 31.7319 144.983 32.2755 144.775 32.7423C144.569 33.209 144.279 33.5727 143.906 33.8334C143.536 34.0942 143.106 34.2245 142.616 34.2245C142.253 34.2245 141.949 34.1593 141.704 34.029C141.462 33.8986 141.265 33.7383 141.114 33.5479C140.965 33.355 140.85 33.1672 140.77 32.9847H140.707V36.3521H140.011ZM140.699 31.0996C140.699 31.5846 140.771 32.0148 140.914 32.3903C141.06 32.7631 141.269 33.0564 141.54 33.2702C141.814 33.4814 142.145 33.587 142.534 33.587C142.932 33.587 143.269 33.4775 143.543 33.2585C143.819 33.0369 144.029 32.7383 144.172 32.3629C144.318 31.9874 144.391 31.5663 144.391 31.0996C144.391 30.6381 144.32 30.2223 144.176 29.852C144.035 29.4818 143.827 29.1885 143.55 28.9721C143.274 28.753 142.935 28.6435 142.534 28.6435C142.142 28.6435 141.81 28.7491 141.536 28.9603C141.262 29.1689 141.054 29.4583 140.91 29.8286C140.77 30.1962 140.699 30.6199 140.699 31.0996ZM148.493 34.2245C147.932 34.2245 147.447 34.0942 147.038 33.8334C146.628 33.5701 146.312 33.2064 146.087 32.7423C145.866 32.2755 145.755 31.7384 145.755 31.1309C145.755 30.526 145.866 29.9889 146.087 29.5196C146.312 29.0477 146.621 28.6787 147.014 28.4128C147.411 28.1442 147.868 28.0099 148.387 28.0099C148.713 28.0099 149.027 28.0699 149.33 28.1899C149.632 28.3072 149.903 28.4884 150.143 28.7335C150.386 28.976 150.577 29.2823 150.718 29.6526C150.859 30.0202 150.929 30.4556 150.929 30.9588V31.303H146.236V30.689H150.217C150.217 30.3031 150.139 29.9563 149.983 29.6487C149.829 29.3384 149.614 29.0933 149.337 28.9134C149.064 28.7335 148.747 28.6435 148.387 28.6435C148.006 28.6435 147.671 28.7452 147.382 28.9486C147.093 29.152 146.866 29.4205 146.701 29.7543C146.54 30.088 146.458 30.453 146.455 30.8493V31.217C146.455 31.6941 146.537 32.1113 146.701 32.4685C146.868 32.8231 147.104 33.0982 147.409 33.2937C147.714 33.4893 148.076 33.587 148.493 33.587C148.777 33.587 149.026 33.5427 149.24 33.4541C149.456 33.3654 149.637 33.2468 149.783 33.0982C149.932 32.9469 150.044 32.7814 150.12 32.6015L150.781 32.8166C150.689 33.0695 150.539 33.3028 150.331 33.5166C150.125 33.7304 149.867 33.9025 149.556 34.0329C149.249 34.1606 148.894 34.2245 148.493 34.2245ZM155.156 33.1099L158.327 28.0921H159.161V34.0994H158.464V29.0816L155.304 34.0994H154.459V28.0921H155.156V33.1099ZM164.504 30.7711V31.4282H160.972V30.7711H164.504ZM161.144 28.0921V34.0994H160.448V28.0921H161.144ZM165.016 28.0921V34.0994H164.32V28.0921H165.016ZM166.318 34.0994V28.0921H168.684C169.323 28.0921 169.826 28.2303 170.194 28.5066C170.564 28.783 170.749 29.1559 170.749 29.6252C170.749 29.9824 170.646 30.2679 170.44 30.4817C170.234 30.6955 169.958 30.8467 169.611 30.9354C169.843 30.9745 170.058 31.0592 170.257 31.1896C170.457 31.32 170.62 31.492 170.745 31.7058C170.871 31.9196 170.933 32.1752 170.933 32.4724C170.933 32.7853 170.855 33.0643 170.699 33.3093C170.542 33.5544 170.322 33.7474 170.038 33.8882C169.753 34.029 169.417 34.0994 169.029 34.0994H166.318ZM166.983 33.4541H169.029C169.396 33.4541 169.687 33.3602 169.901 33.1725C170.114 32.9821 170.221 32.7292 170.221 32.4137C170.221 32.0774 170.12 31.8088 169.916 31.6081C169.716 31.4047 169.446 31.303 169.107 31.303H166.983V33.4541ZM166.983 30.6851H168.727C168.999 30.6851 169.233 30.6434 169.431 30.5599C169.63 30.4765 169.782 30.3592 169.889 30.2079C169.998 30.0541 170.052 29.8742 170.049 29.6682C170.049 29.3736 169.929 29.1454 169.689 28.9838C169.45 28.8195 169.115 28.7374 168.684 28.7374H166.983V30.6851ZM174.338 34.2245C173.777 34.2245 173.292 34.0942 172.883 33.8334C172.473 33.5701 172.156 33.2064 171.932 32.7423C171.711 32.2755 171.6 31.7384 171.6 31.1309C171.6 30.526 171.711 29.9889 171.932 29.5196C172.156 29.0477 172.465 28.6787 172.859 28.4128C173.255 28.1442 173.713 28.0099 174.232 28.0099C174.558 28.0099 174.872 28.0699 175.174 28.1899C175.477 28.3072 175.748 28.4884 175.988 28.7335C176.23 28.976 176.422 29.2823 176.563 29.6526C176.704 30.0202 176.774 30.4556 176.774 30.9588V31.303H172.081V30.689H176.062C176.062 30.3031 175.984 29.9563 175.828 29.6487C175.674 29.3384 175.459 29.0933 175.182 28.9134C174.909 28.7335 174.592 28.6435 174.232 28.6435C173.851 28.6435 173.516 28.7452 173.227 28.9486C172.937 29.152 172.711 29.4205 172.546 29.7543C172.385 30.088 172.302 30.453 172.3 30.8493V31.217C172.3 31.6941 172.382 32.1113 172.546 32.4685C172.713 32.8231 172.949 33.0982 173.254 33.2937C173.559 33.4893 173.92 33.587 174.338 33.587C174.622 33.587 174.871 33.5427 175.085 33.4541C175.301 33.3654 175.482 33.2468 175.628 33.0982C175.777 32.9469 175.889 32.7814 175.964 32.6015L176.625 32.8166C176.534 33.0695 176.384 33.3028 176.176 33.5166C175.97 33.7304 175.712 33.9025 175.401 34.0329C175.094 34.1606 174.739 34.2245 174.338 34.2245ZM180.104 34.2245C179.567 34.2245 179.099 34.0902 178.7 33.8217C178.304 33.5531 177.996 33.1855 177.777 32.7188C177.558 32.2521 177.449 31.7202 177.449 31.1231C177.449 30.5208 177.559 29.985 177.781 29.5157C178.005 29.0464 178.315 28.6787 178.712 28.4128C179.108 28.1442 179.568 28.0099 180.092 28.0099C180.494 28.0099 180.858 28.0882 181.184 28.2446C181.509 28.3984 181.778 28.6162 181.989 28.8977C182.203 29.1767 182.337 29.5026 182.392 29.8755H181.688C181.615 29.5365 181.439 29.2471 181.16 29.0073C180.884 28.7648 180.532 28.6435 180.104 28.6435C179.721 28.6435 179.382 28.7478 179.087 28.9564C178.793 29.1624 178.562 29.4505 178.395 29.8207C178.231 30.1884 178.149 30.6147 178.149 31.0996C178.149 31.5872 178.229 32.0187 178.391 32.3942C178.553 32.767 178.78 33.059 179.072 33.2702C179.366 33.4814 179.71 33.587 180.104 33.587C180.37 33.587 180.613 33.5375 180.832 33.4384C181.053 33.3367 181.238 33.1933 181.387 33.0082C181.538 32.8231 181.64 32.6028 181.692 32.3472H182.396C182.344 32.7097 182.215 33.033 182.009 33.3172C181.805 33.5988 181.541 33.8204 181.215 33.982C180.892 34.1437 180.521 34.2245 180.104 34.2245ZM182.841 28.7491V28.0921H187.534V28.7491H185.547V34.0994H184.851V28.7491H182.841ZM189.151 33.1099L192.323 28.0921H193.156V34.0994H192.459V29.0816L189.299 34.0994H188.455V28.0921H189.151V33.1099ZM198.999 28.0921V33.4384H199.637V36.0431H198.941V34.0994H194.451V28.0921H195.151V33.4423H198.299V28.0921H198.999ZM201.268 33.1099L204.439 28.0921H205.273V34.0994H204.576V29.0816L201.416 34.0994H200.571V28.0921H201.268V33.1099ZM207.256 33.1099L210.428 28.0921H211.261V34.0994H210.565V29.0816L207.405 34.0994H206.56V28.0921H207.256V33.1099ZM209.63 26.0896H210.287C210.287 26.4625 210.163 26.7649 209.916 26.997C209.671 27.2291 209.336 27.3451 208.911 27.3451C208.491 27.3451 208.158 27.2291 207.913 26.997C207.668 26.7649 207.546 26.4625 207.546 26.0896H208.203C208.203 26.293 208.257 26.4651 208.367 26.6059C208.479 26.7441 208.66 26.8132 208.911 26.8132C209.161 26.8132 209.343 26.7441 209.458 26.6059C209.573 26.4651 209.63 26.293 209.63 26.0896Z" fill="white"/>
<path d="M53.7791 17.2173C53.7397 17.5816 53.6758 18.1526 53.5871 18.9304C53.5084 19.718 53.4444 20.294 53.3952 20.6583H52.5977C52.5878 20.3038 52.5681 19.8411 52.5386 19.2701C52.5091 18.699 52.4844 18.2757 52.4648 18H43.1903V17.3797L44.6376 17.2025V7.82471L43.3528 7.66226V7.02723H47.3107V7.66226L45.8191 7.82471V17.2321H50.8403V7.82471L49.6883 7.66226V7.02723H53.277V7.66226L52.0365 7.82471V17.2173H53.7791ZM59.8948 7.02723V7.66226L58.4032 7.82471V15.578L59.7619 13.6434L64.3105 8.25299V7.82471L62.9666 7.66226V7.02723H66.7177V7.66226L65.5067 7.82471V17.2321L66.8063 17.365V18H62.9666V17.365L64.3105 17.2321V9.36061L63.0847 11.1476L58.4032 16.6561V17.2321L59.8209 17.365V18H55.9517V17.365L57.2217 17.2321V7.82471L56.0107 7.66226V7.02723H59.8948ZM72.8737 7.6918L70.0678 7.78041L69.5952 10.7784H68.7829L69.034 7.02723H78.0278L78.1903 10.7784H77.4075L76.994 7.78041L74.1438 7.6918V17.2321L76.2556 17.365V18H70.9391V17.365L72.8737 17.2321V7.6918ZM83.9456 6.92385H85.1566L88.8634 17.2321L89.8233 17.365V18H86.2199V17.365L87.5195 17.2321L86.7368 14.8839H82.1291L81.3464 17.2173L82.6608 17.365V18H79.3379V17.365L80.2831 17.2321L83.9456 6.92385ZM84.8021 9.19816L84.3886 7.79518L83.9899 9.24246L82.3802 14.116H86.4709L84.8021 9.19816ZM100.465 17.2173C100.425 17.5816 100.366 18.1526 100.287 18.9304C100.209 19.718 100.145 20.294 100.095 20.6583H99.2978C99.2191 18.9944 99.1698 18.1083 99.1501 18H92.2238L91.9876 19.1076C91.9285 19.3931 91.8645 19.6787 91.7956 19.9642C91.7365 20.2497 91.6873 20.4811 91.6479 20.6583H90.8504L91.0276 17.2173H92.1205C92.3469 16.9515 92.6029 16.4838 92.8884 15.8143C93.1838 15.135 93.4496 14.2046 93.6859 13.0231C93.9222 11.8318 94.0403 10.4387 94.0403 8.84372V7.82471L92.534 7.66226V7.02723H100.553V7.66226L99.1649 7.82471V17.2173H100.465ZM94.8526 8.93233C94.8624 10.3501 94.7689 11.6448 94.572 12.8164C94.3849 13.9781 94.1634 14.9331 93.9074 15.6814C93.6613 16.4296 93.4398 16.9416 93.2429 17.2173H97.9687L97.9834 7.79518H94.8526V8.93233ZM104.153 7.82471L102.913 7.66226V7.02723H110.223L110.43 9.19816H109.721L109.322 7.78041L105.364 7.70657V12.0041L108.082 11.9598L108.274 10.734H109.012V13.9978H108.274L108.082 12.7425L105.364 12.6982V17.2468L109.883 17.1287L110.636 15.2827L111.345 15.5042L110.888 18H102.883V17.365L104.153 17.2321V7.82471ZM117.008 9.25723C117.008 11.0786 116.899 12.6638 116.683 14.0126C116.476 15.3516 116.161 16.3706 115.738 17.0696C115.531 17.4142 115.295 17.6702 115.029 17.8375C114.773 17.9951 114.472 18.0738 114.128 18.0738C113.754 18.0738 113.419 18.0492 113.124 18L113.05 16.8776C113.266 16.917 113.631 16.9367 114.143 16.9367C114.487 16.9367 114.773 16.7545 114.999 16.3903C115.797 15.2383 116.195 12.8311 116.195 9.16862V7.82471L114.556 7.66226V7.02723H122.708V7.66226L121.32 7.82471V17.2321L122.797 17.365V18H118.617V17.365L120.124 17.2173L120.139 7.80995H117.008V9.25723ZM129.54 11.3248C130.732 11.3248 131.647 11.6054 132.287 12.1666C132.927 12.7278 133.247 13.5203 133.247 14.5442C133.247 15.6962 132.893 16.5823 132.184 17.2025C131.475 17.8129 130.53 18.1181 129.348 18.1181C129.25 18.1181 129.127 18.1132 128.979 18.1034C128.832 18.0935 128.664 18.0837 128.477 18.0738C127.64 18.0246 127.163 18 127.045 18H125.11V17.365L126.395 17.2321V7.80995L125.154 7.63273V7.02723H128.979V7.63273L127.591 7.80995V11.3248H129.54ZM127.591 17.2764C127.867 17.3256 128.108 17.36 128.315 17.3797C128.531 17.3994 128.832 17.4093 129.216 17.4093C130.092 17.4093 130.771 17.173 131.254 16.7004C131.736 16.2278 131.977 15.5386 131.977 14.6329C131.977 13.796 131.736 13.1659 131.254 12.7425C130.771 12.3192 130.092 12.1075 129.216 12.1075H127.591V17.2764ZM142.311 13.7025H136.359V12.8164H142.311V13.7025ZM149.665 7.02723V7.66226L148.173 7.82471V15.578L149.532 13.6434L154.08 8.25299V7.82471L152.736 7.66226V7.02723H156.488V7.66226L155.277 7.82471V17.2321L156.576 17.365V18H152.736V17.365L154.08 17.2321V9.36061L152.855 11.1476L148.173 16.6561V17.2321L149.591 17.365V18H145.722V17.365L146.992 17.2321V7.82471L145.781 7.66226V7.02723H149.665ZM160.34 7.82471L159.129 7.66226V7.02723H162.836V7.66226L161.551 7.82471V11.9746H167.192V7.82471L165.966 7.66226V7.02723H169.629V7.66226L168.418 7.82471V17.2321L169.629 17.365V18H165.952V17.365L167.192 17.2321V12.7573H161.551V17.2321L162.85 17.365V18H159.084V17.365L160.34 17.2321V7.82471ZM173.428 7.82471L172.187 7.66226V7.02723H174.033C174.358 7.02723 174.776 7.00754 175.288 6.96816C175.761 6.92878 176.11 6.90909 176.337 6.90909C177.617 6.90909 178.542 7.12076 179.113 7.54412C179.694 7.96747 179.985 8.58282 179.985 9.39014C179.985 10.0793 179.793 10.6799 179.409 11.1919C179.035 11.694 178.498 12.014 177.799 12.1518C178.724 12.1223 179.448 12.3438 179.97 12.8164C180.502 13.2889 180.767 13.924 180.767 14.7215C180.767 15.706 180.418 16.5133 179.719 17.1434C179.03 17.7736 177.897 18.0886 176.322 18.0886C176.135 18.0886 175.835 18.0788 175.421 18.0591C174.909 18.0197 174.427 18 173.974 18H172.158V17.365L173.428 17.2321V7.82471ZM174.639 11.9007C174.796 11.9106 175.106 11.9155 175.569 11.9155H176.455C177.203 11.9155 177.774 11.7235 178.168 11.3395C178.562 10.9556 178.759 10.3993 178.759 9.67074C178.759 8.95202 178.562 8.42529 178.168 8.09054C177.784 7.7558 177.12 7.58842 176.174 7.58842C175.82 7.58842 175.456 7.60811 175.082 7.6475C174.845 7.66719 174.698 7.67703 174.639 7.67703V11.9007ZM174.639 17.2616C174.895 17.3404 175.451 17.3797 176.307 17.3797C177.41 17.3797 178.208 17.173 178.7 16.7595C179.192 16.3361 179.438 15.7306 179.438 14.943C179.438 14.1553 179.227 13.5843 178.803 13.2299C178.38 12.8656 177.696 12.6835 176.75 12.6835H175.658C175.126 12.6835 174.786 12.6884 174.639 12.6982V17.2616ZM184.31 7.82471L183.069 7.66226V7.02723H190.38L190.586 9.19816H189.877L189.479 7.78041L185.521 7.70657V12.0041L188.238 11.9598L188.43 10.734H189.169V13.9978H188.43L188.238 12.7425L185.521 12.6982V17.2468L190.04 17.1287L190.793 15.2827L191.502 15.5042L191.044 18H183.04V17.365L184.31 17.2321V7.82471ZM198.42 18.1625C197.366 18.1625 196.46 17.9262 195.702 17.4536C194.944 16.981 194.368 16.3164 193.974 15.4599C193.581 14.6033 193.384 13.604 193.384 12.4619C193.384 11.3888 193.615 10.4288 194.078 9.58213C194.541 8.73542 195.171 8.0807 195.968 7.61796C196.766 7.14538 197.657 6.90909 198.641 6.90909C199.143 6.90909 199.626 6.94847 200.088 7.02723C200.561 7.106 200.94 7.17984 201.226 7.24875C201.511 7.31767 201.688 7.36198 201.757 7.38167L201.639 9.78888H200.871L200.546 8.07577C200.399 7.94778 200.133 7.83948 199.749 7.75087C199.365 7.66226 198.897 7.61796 198.346 7.61796C197.666 7.61796 197.056 7.80502 196.515 8.17915C195.973 8.54343 195.545 9.08001 195.23 9.78888C194.924 10.4978 194.772 11.3445 194.772 12.329C194.772 13.2545 194.905 14.1061 195.171 14.8839C195.446 15.6617 195.86 16.2869 196.411 16.7595C196.962 17.2222 197.642 17.4536 198.449 17.4536C199.01 17.4536 199.448 17.4093 199.764 17.3207C200.079 17.2222 200.344 17.0844 200.561 16.9072L201.152 15.5189L201.875 15.6223L201.506 17.6013C201.27 17.6111 200.984 17.6751 200.65 17.7932C200.295 17.9114 199.956 18 199.631 18.0591C199.306 18.128 198.902 18.1625 198.42 18.1625ZM207.759 7.6918L204.953 7.78041L204.481 10.7784H203.668L203.92 7.02723H212.913L213.076 10.7784H212.293L211.88 7.78041L209.029 7.6918V17.2321L211.141 17.365V18H205.825V17.365L207.759 17.2321V7.6918Z" fill="white"/>
<path d="M7.71023 21.4488L20.4627 4.66505L33.2143 21.4488L20.4625 37.7947L7.71023 21.4488Z" fill="white"/>
<path d="M4.03414 12.2858L13.3485 0.0270071L22.6622 12.2858L13.3483 24.2248L4.03414 12.2858Z" fill="#ABB7BF"/>
<path d="M19.498 29.4903L26.7169 19.9893L33.9353 29.4903L26.7168 38.7434L19.498 29.4903Z" fill="#DBDBDB"/>
</svg>