<svg width="87" height="83" viewBox="0 0 87 83" fill="none" xmlns="http://www.w3.org/2000/svg">
<g clip-path="url(#clip0_34106_59)">
<path d="M14.5057 75.1818H15.733V78.8409H15.7812L18.2955 75.1818H19.3722V81H18.142V77.3381H18.0994L15.571 81H14.5057V75.1818ZM20.3885 81V75.1818H21.6186V77.5824H24.1158V75.1818H25.343V81H24.1158V78.5966H21.6186V81H20.3885ZM26.3572 81V75.1818H28.6868C29.1148 75.1818 29.4718 75.2453 29.7578 75.3722C30.0438 75.4991 30.2588 75.6752 30.4027 75.9006C30.5466 76.1241 30.6186 76.3816 30.6186 76.6733C30.6186 76.9006 30.5732 77.1004 30.4822 77.2727C30.3913 77.4432 30.2663 77.5833 30.1072 77.6932C29.95 77.8011 29.7701 77.8778 29.5675 77.9233V77.9801C29.7891 77.9896 29.9964 78.0521 30.1896 78.1676C30.3847 78.2831 30.5429 78.4451 30.6641 78.6534C30.7853 78.8598 30.8459 79.1061 30.8459 79.392C30.8459 79.7008 30.7692 79.9763 30.6158 80.2188C30.4643 80.4593 30.2398 80.6496 29.9425 80.7898C29.6451 80.9299 29.2786 81 28.843 81H26.3572ZM27.5874 79.9943H28.5902C28.933 79.9943 29.183 79.929 29.3402 79.7983C29.4974 79.6657 29.576 79.4896 29.576 79.2699C29.576 79.1089 29.5372 78.9669 29.4595 78.8438C29.3819 78.7206 29.2711 78.6241 29.1271 78.554C28.9851 78.4839 28.8156 78.4489 28.6186 78.4489H27.5874V79.9943ZM27.5874 77.6165H28.4993C28.6679 77.6165 28.8175 77.5871 28.9482 77.5284C29.0807 77.4678 29.1849 77.3826 29.2607 77.2727C29.3383 77.1629 29.3771 77.0312 29.3771 76.8778C29.3771 76.6676 29.3023 76.4981 29.1527 76.3693C29.005 76.2405 28.7947 76.1761 28.522 76.1761H27.5874V77.6165ZM31.6463 81V75.1818H35.5668V76.196H32.8764V77.5824H35.3651V78.5966H32.8764V79.9858H35.5781V81H31.6463ZM41.6783 77.2188H40.4339C40.4112 77.0578 40.3648 76.9148 40.2947 76.7898C40.2247 76.6629 40.1347 76.5549 40.0249 76.4659C39.915 76.3769 39.7881 76.3087 39.6442 76.2614C39.5021 76.214 39.3478 76.1903 39.1811 76.1903C38.88 76.1903 38.6177 76.2652 38.3942 76.4148C38.1707 76.5625 37.9974 76.7784 37.8743 77.0625C37.7512 77.3447 37.6896 77.6875 37.6896 78.0909C37.6896 78.5057 37.7512 78.8542 37.8743 79.1364C37.9993 79.4186 38.1735 79.6316 38.397 79.7756C38.6205 79.9195 38.879 79.9915 39.1726 79.9915C39.3374 79.9915 39.4898 79.9697 39.63 79.9261C39.772 79.8826 39.898 79.8191 40.0078 79.7358C40.1177 79.6506 40.2086 79.5473 40.2805 79.4261C40.3544 79.3049 40.4055 79.1667 40.4339 79.0114L41.6783 79.017C41.6461 79.2841 41.5656 79.5417 41.4368 79.7898C41.3099 80.036 41.1385 80.2566 40.9226 80.4517C40.7086 80.6449 40.4529 80.7983 40.1555 80.9119C39.8601 81.0237 39.5258 81.0795 39.1527 81.0795C38.6338 81.0795 38.1697 80.9621 37.7607 80.7273C37.3535 80.4924 37.0315 80.1525 36.7947 79.7074C36.5599 79.2623 36.4425 78.7235 36.4425 78.0909C36.4425 77.4564 36.5618 76.9167 36.8004 76.4716C37.0391 76.0265 37.3629 75.6875 37.772 75.4545C38.1811 75.2197 38.6413 75.1023 39.1527 75.1023C39.4898 75.1023 39.8023 75.1496 40.0902 75.2443C40.38 75.339 40.6366 75.4773 40.8601 75.6591C41.0836 75.839 41.2654 76.0597 41.4055 76.321C41.5476 76.5824 41.6385 76.8816 41.6783 77.2188ZM42.3388 76.196V75.1818H47.1172V76.196H45.3359V81H44.12V76.196H42.3388ZM47.9041 75.1818H49.1314V78.8409H49.1797L51.6939 75.1818H52.7706V81H51.5405V77.3381H51.4979L48.9695 81H47.9041V75.1818ZM59.392 80.017L59.321 82.375H58.1506V81H57.7415V80.017H59.392ZM53.7869 81V75.1818H54.9688V80.0114H57.3892V75.1818H58.5852V81H53.7869ZM60.1385 75.1818H61.3658V78.8409H61.4141L63.9283 75.1818H65.005V81H63.7749V77.3381H63.7322L61.2038 81H60.1385V75.1818ZM66.0213 75.1818H67.2486V78.8409H67.2969L69.8111 75.1818H70.8878V81H69.6577V77.3381H69.6151L67.0866 81H66.0213V75.1818Z" fill="white" fill-opacity="0.8"/>
<mask id="mask0_34106_59" style="mask-type:luminance" maskUnits="userSpaceOnUse" x="0" y="0" width="87" height="83">
<path d="M86.1972 0H0V68H86.1972V0Z" fill="white"/>
</mask>
<g mask="url(#mask0_34106_59)">
<path d="M25.6792 34.811L28.1689 36.7237L30.6624 38.6708C31.0315 37.4763 31.5205 36.3227 32.122 35.228L27.1426 31.3682C26.5411 32.4634 26.0508 33.6168 25.6792 34.811Z" fill="#B76722"/>
<path d="M27.4551 30.7909L32.4383 34.6852C33.0384 33.6391 33.7291 32.6483 34.5023 31.7243L29.5267 27.8301C28.7491 28.7524 28.0558 29.7433 27.4551 30.7909Z" fill="#C48423"/>
<path d="M29.9482 27.3479L34.9277 31.2421C35.7487 30.3317 36.6665 29.5146 37.6644 28.8054L32.6888 24.9111C31.6876 25.6177 30.7683 26.435 29.9482 27.3479Z" fill="#C6962D"/>
<path d="M49.4141 15.6386L54.3935 19.5329C55.2721 18.6981 56.0926 17.8034 56.849 16.8551L51.8696 12.957C51.1121 13.9056 50.2917 14.8015 49.4141 15.6386Z" fill="#EFD14E"/>
<path d="M37.5317 22.5007L42.5112 26.3949C43.7009 25.9206 44.9933 25.4156 46.335 24.8112L41.3594 20.917C40.01 21.5214 38.7215 22.0264 37.5317 22.5007Z" fill="#F5DD73"/>
<path d="M33.666 24.2683L33.2402 24.536L38.2235 28.4303C38.3603 28.3423 38.5009 28.2505 38.6454 28.1663C39.6621 27.5886 40.7205 27.0886 41.8117 26.6706L36.8475 22.7764C35.7513 23.1927 34.6878 23.6914 33.666 24.2683Z" fill="#E4A923"/>
<path d="M56.5791 5.05728L61.5547 8.95534C62.0311 7.86128 62.4847 6.68944 62.9155 5.43981L57.9361 1.53027C57.5078 2.78755 57.0555 3.96322 56.5791 5.05728Z" fill="#D4931F"/>
<path d="M54.6367 8.93183L59.6161 12.8261C60.2276 11.7647 60.7858 10.6731 61.2886 9.55537L56.313 5.66113C55.777 6.83935 55.2145 7.92576 54.6367 8.93183Z" fill="#D9A41F"/>
<path d="M42.0093 20.6148L46.9887 24.509C48.1666 23.9519 49.3091 23.3221 50.4097 22.6231L45.4531 18.7441C44.3438 19.4372 43.1937 20.0619 42.0093 20.6148Z" fill="#FEF7BD"/>
<path d="M46.0195 18.3616L50.9952 22.2597C52.026 21.5654 53.0066 20.7984 53.9296 19.9645L48.9502 16.0664C48.0278 16.8995 47.0486 17.6665 46.0195 18.3616Z" fill="#F6DA82"/>
<path d="M52.2764 12.474L57.2558 16.372C57.9936 15.4185 58.6752 14.4222 59.297 13.3882L54.3099 9.48633C53.6917 10.522 53.0126 11.5196 52.2764 12.474Z" fill="#DEAF1D"/>
<path d="M18.4424 29.1304L20.9321 31.0737L23.4218 33.0247C23.7935 31.8311 24.2824 30.6778 24.8814 29.5818L19.902 25.6914C19.3032 26.7861 18.8143 27.9382 18.4424 29.1304Z" fill="#791E19"/>
<path d="M20.2173 25.1249L25.1967 29.023C25.7973 27.9763 26.4893 26.9854 27.2645 26.0621L22.2851 22.1641C21.5104 23.0877 20.8184 24.0785 20.2173 25.1249Z" fill="#A0201E"/>
<path d="M22.7075 21.6867L27.6869 25.5809C28.5074 24.6684 29.4266 23.8511 30.4275 23.1442L25.4443 19.2461C24.4468 19.9574 23.5292 20.7757 22.7075 21.6867Z" fill="#A6201E"/>
<path d="M42.1919 9.97212L47.1713 13.8664C48.0483 13.0381 48.8687 12.1512 49.6268 11.2115L44.6474 7.31348C43.8882 8.25337 43.0679 9.14154 42.1919 9.97212Z" fill="#C23F32"/>
<path d="M30.2939 16.8318L35.2734 20.7337C36.4631 20.2594 37.7555 19.7544 39.0973 19.1462L34.1178 15.252C32.7723 15.864 31.4837 16.3651 30.2939 16.8318Z" fill="#DA8E8D"/>
<path d="M26.4286 18.6071C26.2842 18.6913 26.1436 18.7831 26.0029 18.8749L30.9823 22.7691L31.4081 22.5014C32.4306 21.9259 33.494 21.4272 34.5896 21.0095L29.6064 17.1152C28.5121 17.5331 27.45 18.0318 26.4286 18.6071Z" fill="#C52E1A"/>
<path d="M47.3989 3.2707L52.3783 7.16494C52.9561 6.15504 53.5187 5.07246 54.0508 3.89424L49.0714 0C48.5393 1.17822 47.9767 2.2608 47.3989 3.2707Z" fill="#A7211E"/>
<path d="M34.772 14.9494L39.7476 18.8475C40.9332 18.2911 42.0833 17.6613 43.1914 16.9615L38.212 13.0635C37.1047 13.7624 35.9559 14.3922 34.772 14.9494Z" fill="#EDCCCD"/>
<path d="M38.771 12.6966L43.7504 16.5908C44.7807 15.8958 45.7612 15.1288 46.6849 14.2956L41.7054 10.4014C40.7826 11.2355 39.8019 12.0025 38.771 12.6966Z" fill="#D98C97"/>
<path d="M45.0391 6.8138L50.0185 10.7119C50.7522 9.75652 51.4299 8.75895 52.0483 7.72424L47.0726 3.82617C46.4517 4.86012 45.7728 5.85761 45.0391 6.8138Z" fill="#B4241C"/>
<path d="M32.9204 40.4537L35.4063 42.4009L37.8998 44.348C38.2696 43.1537 38.7587 42.0002 39.3594 40.9051L34.38 37.0186C33.781 38.1118 33.2921 39.2626 32.9204 40.4537Z" fill="#791E19"/>
<path d="M34.6958 36.4559L39.6752 40.3463C40.2756 39.3006 40.9676 38.311 41.743 37.3893L36.7636 33.4912C35.9871 34.4148 35.295 35.4071 34.6958 36.4559Z" fill="#A0201E"/>
<path d="M37.186 33.0091L42.1655 36.9072C42.9853 35.9955 43.9032 35.1783 44.9022 34.4704L39.9114 30.5762C38.9165 31.2834 38.0024 32.0993 37.186 33.0091Z" fill="#A6201E"/>
<path d="M56.667 21.3002L61.6426 25.1945C62.5209 24.3663 63.3425 23.4794 64.1019 22.5397L59.1225 18.6416C58.3633 19.5815 57.543 20.4697 56.667 21.3002Z" fill="#C23F32"/>
<path d="M44.7686 28.1618L49.748 32.0561C50.9377 31.5855 52.2301 31.0806 53.5757 30.4724L48.5962 26.5781C47.2469 27.1864 45.9621 27.6875 44.7686 28.1618Z" fill="#DA8E8D"/>
<path d="M40.9034 29.9332L40.4814 30.1972L45.4609 34.0914L45.8866 33.8275C46.9074 33.2501 47.9696 32.7501 49.0643 32.3317L44.0925 28.4375C42.9946 28.8571 41.9287 29.357 40.9034 29.9332Z" fill="#C52E1A"/>
<path d="M49.2461 26.2765L54.2255 30.1746C55.4111 29.6169 56.5613 28.9858 57.6693 28.2849L52.6899 24.3906C51.5814 25.0896 50.4313 25.7194 49.2461 26.2765Z" fill="#EDCCCD"/>
<path d="M53.2559 24.0229L58.2353 27.9248C59.265 27.2306 60.2443 26.4636 61.1659 25.6296L56.1903 21.7354C55.2673 22.567 54.2867 23.3314 53.2559 24.0229Z" fill="#D98C97"/>
<path d="M59.5176 18.14L64.497 22.0342C65.2268 21.0777 65.902 20.0802 66.5192 19.0466L61.5474 15.1523C60.9281 16.1865 60.2504 17.184 59.5176 18.14Z" fill="#B4241C"/>
<path d="M26.2275 61.1793V52.9432H22.4796V66.6725H26.2275L31.8797 58.4671V66.6725H35.6124V52.9432H31.8683L26.2275 61.1793ZM14.5315 52.9394H12.3003V51.6426H8.56384V52.9509H6.33261C2.31486 52.9394 0 55.5177 0 60.0087C0 64.1363 2.31486 66.6649 6.6671 66.6649H8.56764V67.9999H12.3041V66.6649H14.2046C16.4093 66.6649 18.0856 66.0145 19.2259 64.8095C20.3662 63.6045 20.8718 62.0553 20.8718 60.0087C20.8641 55.5177 18.5493 52.9394 14.5315 52.9394ZM8.56384 63.9259H7.67059C5.10486 63.9259 3.82009 62.3957 3.82009 59.718C3.82009 57.2162 5.07825 55.6975 7.39311 55.6975H8.56384V63.9259ZM13.1936 63.9259H12.3003V55.709H13.4748C15.7897 55.709 17.0441 57.285 17.0441 59.7294C17.0441 62.3957 15.7593 63.9259 13.1936 63.9259ZM47.3843 58.4671H41.7283V52.9432H38.0108V66.6725H41.7435V61.1793H47.3995V66.6725H51.1322V52.9432H47.3995L47.3843 58.4671ZM82.78 52.9509C81.3356 52.9509 80.4423 53.7159 79.9976 55.0816L77.5421 62.5679L75.0486 55.0854C74.6039 53.7121 73.7144 52.9547 72.2662 52.9547H68.8452V66.6649H72.6007V56.9981L75.7708 66.6649H79.3134L82.4835 56.9981V66.6649H86.2162V52.9585L82.78 52.9509ZM64.5728 53.6892C63.8772 53.211 62.8167 52.9241 61.3647 52.9241H53.926V55.6975H60.1864C62.277 55.6975 63.0638 56.4128 63.0638 58.1228V58.4709H57.9437C56.3017 58.4709 55.0739 58.796 54.2681 59.6376C53.8923 60.024 53.5977 60.4826 53.4018 60.986C53.2059 61.4895 53.1127 62.0274 53.1278 62.5679C53.1278 63.9986 53.6713 65.1041 54.5912 65.7774C55.397 66.3665 56.5665 66.661 58.0996 66.661H66.519V59.0103C66.519 56.3975 65.8842 54.5843 64.5728 53.6892ZM63.0524 63.9374H58.1566C57.2405 63.9374 56.4841 63.5969 56.4841 62.5908C56.4841 61.4968 57.1531 61.1946 58.1566 61.1946H63.098L63.0524 63.9374Z" fill="white"/>
</g>
</g>
<defs>
<clipPath id="clip0_34106_59">
<rect width="87" height="83" fill="white"/>
</clipPath>
</defs>
</svg>